<?xml version="1.0" encoding="UTF-8" standalone="no"?>
<!-- Created with Inkscape (http://www.inkscape.org/) -->

<svg
   width="481.47726mm"
   height="179.94118mm"
   viewBox="0 0 481.47727 179.94118"
   version="1.1"
   id="svg1"
   xml:space="preserve"
   xmlns="http://www.w3.org/2000/svg"
   xmlns:svg="http://www.w3.org/2000/svg"><defs
     id="defs1"><linearGradient
       id="swatch9"><stop
         style="stop-color:#000000;stop-opacity:1;"
         offset="0"
         id="stop9" /></linearGradient><style
       id="style1">.cls-1{fill:#ff0082;}</style><linearGradient
       id="paint0_linear_1_59"
       x1="22.4702"
       y1="107"
       x2="69.145103"
       y2="84.9468"
       gradientUnits="userSpaceOnUse"><stop
         stop-color="#D83333"
         id="stop3" /><stop
         offset="1"
         stop-color="#F041FF"
         id="stop4" /></linearGradient></defs><g
     id="layer1"
     transform="translate(-60.600167,-44.834473)"><g
       id="g1"
       transform="matrix(1.2846588,0,0,1.2846588,23.524914,28.312615)"><g
         class="name"
         id="g7"><path
           d="m 168.38393,85.306005 7.9375,9.016802 c -4.78977,5.702023 -11.96693,8.712643 -21.24224,8.712643 -17.79016,0 -29.37677,-11.723288 -29.37677,-27.749786 0,-16.026484 11.67752,-27.749849 27.55193,-27.749849 14.53667,0 26.50302,10.020377 26.59442,27.248073 l -38.07422,7.709115 c 2.20458,5.306691 6.97943,8.013236 13.68485,8.013236 5.4587,0 9.38162,-1.70299 12.92453,-5.215448 z M 140.34528,73.689091 165.41902,68.58008 c -1.42926,-5.504343 -5.93019,-9.214464 -12.14921,-9.214464 -7.46584,0 -12.63573,5.215471 -12.92453,14.323475 z"
           id="path4"
           style="stroke-width:1.52062" /><path
           d="m 183.34119,75.285664 c 0,-16.22418 11.96636,-27.749849 28.70749,-27.749849 10.81128,0 19.32623,4.911368 23.06687,13.715281 l -11.57161,6.507901 c -2.78264,-5.109008 -6.88795,-7.405022 -11.57133,-7.405022 -7.5568,0 -13.48697,5.504347 -13.48697,14.91648 0,9.412145 5.93018,14.916491 13.48697,14.916491 4.68338,0 8.80412,-2.204768 11.57133,-7.405018 l 11.57161,6.614357 c -3.72566,8.621424 -12.24061,13.624095 -23.06687,13.624095 -16.74113,0 -28.70749,-11.525782 -28.70749,-27.749925 z"
           id="path5"
           style="stroke-width:1.52062" /><g
           style="fill:none"
           id="g2"
           transform="matrix(1.2435478,0,0,1.2435478,238.60797,19.870519)"><path
             d="m 27.5894,91.1365 c -4.8339,-4.4187 -6.245,-13.703 -4.2311,-20.4293 3.492,4.2408 8.3305,5.5842 13.3422,6.3425 7.737,1.1702 15.3354,0.7325 22.5227,-2.8038 0.8222,-0.4049 1.582,-0.9432 2.4804,-1.4885 0.6744,1.9566 0.8499,3.9318 0.6144,5.9422 -0.5728,4.8961 -3.0094,8.6782 -6.8848,11.5452 -1.5497,1.1468 -3.1895,2.1719 -4.79,3.2531 -4.917,3.3234 -6.2473,7.2201 -4.3997,12.8881 0.0439,0.139 0.0832,0.277 0.1825,0.614 -2.5105,-1.124 -4.3443,-2.76 -5.7415,-4.911 -1.4758,-2.2697 -2.1779,-4.7809 -2.2149,-7.4981 -0.0185,-1.3223 -0.0185,-2.6564 -0.1963,-3.96 -0.4342,-3.1782 -1.9262,-4.6012 -4.7369,-4.6831 -2.8846,-0.0842 -5.1664,1.6991 -5.7715,4.5076 -0.0462,0.2153 -0.1132,0.4283 -0.1802,0.6787 z"
             fill="url(#paint0_linear_1_59)"
             id="path2-7"
             style="fill:url(#paint0_linear_1_59)" /><path
             d="m 0,69.5866 c 0,0 14.3139,-6.9729 28.6678,-6.9729 L 39.4901,29.1204 c 0.4052,-1.6197 1.5882,-2.7205 2.9238,-2.7205 1.3356,0 2.5186,1.1008 2.9238,2.7205 l 10.8224,33.4933 c 17,0 28.6677,6.9729 28.6677,6.9729 0,0 -24.3133,-66.23427 -24.3608,-66.36716 C 59.7692,1.2612 58.5911,0 57.0029,0 H 27.8274 C 26.2392,0 25.1087,1.2612 24.3634,3.21944 24.3108,3.34983 0,69.5866 0,69.5866 Z"
             class="astro-logo"
             id="path3-5" /></g><path
           d="m 403.64999,73.654032 c 0,16.923602 -11.19105,27.749788 -25.63625,27.749788 -6.41671,0 -11.67766,-2.098272 -15.49422,-6.507879 v 25.134549 h -14.9317 V 46.710056 h 14.26274 v 6.203805 c 3.72517,-4.71367 9.27528,-7.009678 16.16318,-7.009678 14.4452,0 25.63625,10.811039 25.63625,27.749849 z m -15.11416,0 c 0,-9.320898 -5.64097,-14.916473 -13.1068,-14.916473 -7.46583,0 -13.10741,5.610788 -13.10741,14.916473 0,9.305694 5.64158,14.91649 13.10741,14.91649 7.46583,0 13.1068,-5.610796 13.1068,-14.91649 z"
           id="path7"
           style="stroke-width:1.52062" /><g
           id="g9"><path
             class="cls-1"
             d="m 59.59,13.02 -30.73,2.8 3.67,40.21 20.03,-1.83 -1.99,-21.86 10.71,-0.98 c 10.61,-0.97 19.14,7.53 20.29,20.19 v 0 c 0,0 19.67,-1.79 19.67,-1.79 C 99.22,27.59 80.52,11.11 59.61,13.01 Z"
             id="path1" /><path
             class="cls-1"
             d="m 102.46,62.38 c 0,12.72 -7.73,21.95 -18.37,21.95 H 73.34 V 62.34 H 53.23 v 40.42 h 30.86 c 21.02,0 38.12,-18.11 38.12,-40.38 0,-0.01 0,-0.02 0,-0.04 h -19.75 c 0,0 0,0.02 0,0.04 z"
             id="path2" /></g></g></g></g><style
     id="style7">
        @media (prefers-color-scheme: dark) {g.name {fill: #ffffff;}}
        @media (prefers-color-scheme: light) {g.name {fill: #000000;}}
        @media (prefers-color-scheme: dark) {.astro-logo {fill: #ffffff;}}
        @media (prefers-color-scheme: light) {.astro-logo {fill: #000000;}}
    </style></svg>
